<?xml version="1.0" standalone="no"?>
<!DOCTYPE svg PUBLIC "-//W3C//DTD SVG 20010904//EN"
 "http://www.w3.org/TR/2001/REC-SVG-20010904/DTD/svg10.dtd">
<svg version="1.0" xmlns="http://www.w3.org/2000/svg"
 width="612.000000pt" height="612.000000pt" viewBox="0 0 612.000000 612.000000"
 preserveAspectRatio="xMidYMid meet">

<g transform="translate(0.000000,612.000000) scale(0.100000,-0.100000)"
fill="#000000" stroke="none">
<path d="M3039 4018 c-7 -18 -27 -64 -45 -103 l-33 -70 96 -3 c52 -1 97 -1 99
1 6 6 -88 207 -97 207 -3 0 -12 -15 -20 -32z"/>
<path d="M2760 3178 l0 -121 52 -61 c28 -34 55 -65 60 -71 4 -5 8 77 8 183 l0
192 -60 0 -60 0 0 -122z"/>
<path d="M2975 3287 c-3 -7 -4 -123 -3 -257 l3 -245 88 -3 87 -3 0 261 0 260
-85 0 c-60 0 -87 -4 -90 -13z"/>
<path d="M3240 3109 l0 -191 27 34 c15 18 43 51 63 73 l35 40 -3 118 -3 117
-60 0 -59 0 0 -191z"/>
<path d="M1970 3165 c0 -9 110 -307 116 -314 2 -2 56 -5 121 -8 242 -8 434
-47 577 -118 49 -24 91 -43 93 -41 1 1 -18 31 -44 67 -60 84 -186 206 -267
258 -74 49 -222 104 -351 132 -104 22 -245 36 -245 24z"/>
<path d="M3975 3154 c-184 -31 -360 -98 -462 -177 -96 -74 -263 -259 -263
-291 0 -4 36 12 80 34 139 70 356 119 536 121 44 0 101 4 128 7 l49 7 27 75
c16 41 42 112 59 158 l30 82 -52 -1 c-28 -1 -88 -7 -132 -15z"/>
<path d="M1600 2736 c0 -2 33 -32 73 -65 l72 -61 355 -4 c271 -2 374 -7 436
-19 163 -31 261 -68 371 -137 35 -22 63 -38 63 -34 0 14 -64 96 -111 142 -96
94 -243 151 -444 171 -100 10 -815 16 -815 7z"/>
<path d="M3700 2729 c-103 -11 -246 -50 -314 -87 -64 -34 -174 -138 -204 -193
-13 -23 -18 -38 -10 -33 7 4 39 25 71 45 111 72 274 120 467 139 63 6 240 10
393 9 l278 -2 63 52 c110 89 137 81 -285 80 -206 -1 -412 -6 -459 -10z"/>
<path d="M1490 2497 c0 -3 15 -14 33 -25 17 -10 130 -83 251 -161 l218 -141
510 0 509 0 -18 31 c-34 59 -143 150 -227 190 -180 86 -305 101 -832 97 -220
-2 -409 1 -421 5 -13 5 -23 6 -23 4z"/>
<path d="M4550 2489 c-36 -5 -222 -6 -415 -2 -370 6 -478 -1 -624 -38 -99 -25
-212 -79 -276 -132 -54 -44 -115 -116 -115 -135 0 -9 130 -12 503 -12 l503 0
245 156 c243 156 272 175 254 173 -6 -1 -39 -5 -75 -10z"/>
<path d="M1530 1352 c0 -4 8 -18 17 -32 9 -13 19 -39 22 -59 7 -42 31 -55 31
-15 0 15 11 47 25 71 20 34 23 43 11 43 -9 0 -23 -15 -32 -32 l-17 -33 -15 33
c-14 28 -42 45 -42 24z"/>
<path d="M1700 1338 c-11 -12 -20 -31 -20 -43 0 -50 59 -87 103 -64 30 16 37
28 37 66 0 58 -78 85 -120 41z m79 -12 c7 -8 11 -27 9 -43 -2 -23 -8 -29 -35
-31 -27 -3 -33 1 -39 21 -12 50 36 89 65 53z"/>
<path d="M1870 1321 c0 -22 4 -51 9 -64 12 -32 55 -43 87 -22 20 13 24 23 24
70 0 41 -4 55 -14 55 -11 0 -16 -15 -18 -52 -2 -42 -7 -54 -22 -56 -25 -5 -36
14 -36 66 0 31 -4 42 -15 42 -11 0 -15 -11 -15 -39z"/>
<path d="M2050 1290 c0 -56 3 -70 15 -70 9 0 15 9 15 25 0 32 9 32 36 -2 26
-33 42 -24 26 12 -9 19 -9 31 0 51 11 22 10 28 -7 40 -10 8 -34 14 -52 14
l-33 0 0 -70z m68 27 c2 -12 -3 -17 -17 -17 -15 0 -21 6 -21 21 0 25 33 22 38
-4z"/>
<path d="M2291 1346 c-19 -22 -9 -49 22 -64 36 -18 35 -35 -3 -30 -38 6 -42
-19 -5 -28 18 -4 32 -1 45 11 28 25 25 43 -10 63 -38 22 -41 47 -4 38 19 -5
25 -3 22 6 -6 19 -53 22 -67 4z"/>
<path d="M2420 1290 l0 -70 40 0 c29 0 40 4 40 15 0 9 -9 15 -25 15 -24 0 -25
3 -25 55 0 42 -3 55 -15 55 -12 0 -15 -14 -15 -70z"/>
<path d="M2560 1340 c-27 -27 -25 -66 5 -95 27 -28 45 -31 78 -14 29 16 37 28
37 62 0 36 -32 67 -70 67 -17 0 -39 -9 -50 -20z m83 -21 c5 -9 7 -28 3 -42 -5
-21 -12 -27 -35 -27 -29 0 -41 15 -41 49 0 39 52 54 73 20z"/>
<path d="M2752 1344 c-22 -15 -30 -66 -14 -90 14 -22 53 -35 83 -29 24 5 29
12 29 36 0 24 -4 29 -25 29 -26 0 -34 -15 -12 -23 9 -4 9 -8 -2 -16 -23 -15
-51 5 -51 38 0 36 22 55 54 47 28 -7 45 9 20 18 -27 10 -59 7 -82 -10z"/>
<path d="M2931 1338 c-5 -13 -17 -42 -26 -66 -20 -48 -12 -68 13 -35 20 25 57
24 76 -3 26 -35 28 -6 4 58 -26 68 -52 86 -67 46z m39 -50 c0 -10 -7 -18 -15
-18 -16 0 -19 17 -9 45 5 13 8 14 15 3 5 -7 9 -21 9 -30z"/>
<path d="M3070 1289 c0 -52 3 -70 13 -67 6 3 14 22 17 43 l5 39 28 -37 c43
-56 57 -49 57 28 0 51 -3 65 -15 65 -11 0 -15 -11 -15 -42 l0 -42 -36 42 c-19
23 -40 42 -45 42 -5 0 -9 -32 -9 -71z"/>
<path d="M3337 1342 c-17 -19 -22 -68 -9 -88 14 -22 53 -35 83 -29 24 5 29 12
29 36 0 24 -4 29 -25 29 -14 0 -25 -4 -25 -10 0 -5 5 -10 10 -10 6 0 10 -5 10
-11 0 -6 -12 -9 -27 -7 -22 2 -29 9 -31 31 -5 39 15 60 50 53 30 -6 48 8 22
18 -30 12 -71 6 -87 -12z"/>
<path d="M3507 1342 c-17 -19 -22 -68 -9 -88 10 -15 47 -34 67 -34 24 0 65 46
65 73 0 54 -87 89 -123 49z m77 -18 c33 -32 14 -77 -30 -72 -23 2 -30 8 -32
31 -6 49 30 73 62 41z"/>
<path d="M3680 1290 l0 -70 45 0 c33 0 45 4 45 15 0 10 -10 15 -30 15 -20 0
-30 5 -30 15 0 8 9 15 19 15 11 0 23 5 26 10 4 6 -5 10 -19 10 -19 0 -26 5
-26 20 0 16 7 20 30 20 17 0 30 5 30 10 0 6 -20 10 -45 10 l-45 0 0 -70z"/>
<path d="M3830 1345 c-18 -21 -8 -48 23 -63 36 -17 35 -34 -3 -30 -39 4 -43
-14 -6 -27 24 -8 31 -6 47 13 22 28 16 48 -23 68 -33 17 -28 39 8 30 17 -5 24
-2 24 9 0 20 -53 20 -70 0z"/>
<path d="M4032 1293 c2 -42 8 -68 16 -71 8 -2 12 7 12 27 0 28 3 31 29 31 25
0 30 -5 33 -27 2 -14 9 -28 16 -31 9 -3 12 15 12 67 0 56 -3 71 -15 71 -10 0
-15 -10 -15 -31 0 -27 -3 -30 -27 -27 -22 2 -29 9 -31 31 -2 16 -9 27 -18 27
-12 0 -14 -13 -12 -67z"/>
<path d="M4212 1293 l3 -68 43 -3 c33 -2 42 0 42 12 0 11 -10 16 -30 16 -20 0
-30 5 -30 15 0 9 9 15 25 15 31 0 33 17 3 22 -13 2 -24 11 -26 21 -3 13 3 17
27 17 17 0 31 5 31 10 0 6 -20 10 -45 10 l-46 0 3 -67z"/>
<path d="M4351 1328 c2 -61 11 -108 20 -108 5 0 9 11 9 24 0 35 18 42 31 12
11 -24 37 -42 47 -32 2 3 -3 17 -12 31 -13 20 -14 28 -4 45 20 31 -1 54 -51
58 -41 3 -41 3 -40 -30z m69 -8 c0 -13 -7 -20 -20 -20 -13 0 -20 7 -20 20 0
13 7 20 20 20 13 0 20 -7 20 -20z"/>
<path d="M4512 1293 l3 -68 43 -3 c33 -2 42 0 42 12 0 11 -10 16 -30 16 -20 0
-30 5 -30 15 0 8 9 15 20 15 11 0 20 4 20 9 0 5 -9 11 -20 14 -33 8 -25 37 10
37 17 0 30 5 30 10 0 6 -20 10 -45 10 l-46 0 3 -67z"/>
</g>
</svg>
